<svg xmlns="http://www.w3.org/2000/svg" xmlns:xlink="http://www.w3.org/1999/xlink" width="1200" zoomAndPan="magnify" viewBox="0 0 900 449.999984" height="600" preserveAspectRatio="xMidYMid meet" version="1.0"><defs><g/></defs><g fill="#f6e7d8" fill-opacity="1"><g transform="translate(317.356252, 188.669882)"><g><path d="M 23.3125 -37.796875 C 29.800781 -37.796875 34.898438 -36.148438 38.609375 -32.859375 C 42.316406 -29.578125 44.171875 -24.785156 44.171875 -18.484375 C 44.171875 -12.179688 42.316406 -7.382812 38.609375 -4.09375 C 34.898438 -0.800781 29.800781 0.84375 23.3125 0.84375 C 16.820312 0.84375 11.734375 -0.785156 8.046875 -4.046875 C 4.359375 -7.316406 2.515625 -12.128906 2.515625 -18.484375 C 2.515625 -24.828125 4.359375 -29.628906 8.046875 -32.890625 C 11.734375 -36.160156 16.820312 -37.796875 23.3125 -37.796875 Z M 23.3125 -28.34375 C 18.738281 -28.34375 16.453125 -25.707031 16.453125 -20.4375 L 16.453125 -16.453125 C 16.453125 -11.222656 18.738281 -8.609375 23.3125 -8.609375 C 27.925781 -8.609375 30.234375 -11.222656 30.234375 -16.453125 L 30.234375 -20.4375 C 30.234375 -25.707031 27.925781 -28.34375 23.3125 -28.34375 Z M 23.3125 -28.34375 "/></g></g></g><g fill="#f6e7d8" fill-opacity="1"><g transform="translate(362.643704, 188.669882)"><g><path d="M 29.6875 -37.796875 C 33.976562 -37.796875 37.195312 -36.601562 39.34375 -34.21875 C 41.488281 -31.84375 42.5625 -28.414062 42.5625 -23.9375 L 42.5625 0 L 28.625 0 L 28.625 -22.265625 C 28.625 -23.847656 28.21875 -25.117188 27.40625 -26.078125 C 26.59375 -27.035156 25.4375 -27.515625 23.9375 -27.515625 C 22.207031 -27.515625 20.804688 -26.953125 19.734375 -25.828125 C 18.660156 -24.710938 18.125 -23.335938 18.125 -21.703125 L 18.125 0 L 4.203125 0 L 4.203125 -36.953125 L 15.609375 -36.953125 L 16.515625 -31.359375 C 17.960938 -33.316406 19.863281 -34.878906 22.21875 -36.046875 C 24.582031 -37.210938 27.070312 -37.796875 29.6875 -37.796875 Z M 29.6875 -37.796875 "/></g></g></g><g fill="#f6e7d8" fill-opacity="1"><g transform="translate(407.931156, 188.669882)"><g><path d="M 23.3125 -37.796875 C 30.070312 -37.796875 35.238281 -36.207031 38.8125 -33.03125 C 42.382812 -29.863281 44.171875 -25.015625 44.171875 -18.484375 L 44.171875 -16.09375 L 16.453125 -16.09375 C 16.453125 -13.4375 17.046875 -11.429688 18.234375 -10.078125 C 19.421875 -8.722656 21.300781 -8.046875 23.875 -8.046875 C 26.207031 -8.046875 27.921875 -8.535156 29.015625 -9.515625 C 30.109375 -10.492188 30.65625 -11.800781 30.65625 -13.4375 L 44.171875 -13.4375 C 44.171875 -8.957031 42.46875 -5.457031 39.0625 -2.9375 C 35.65625 -0.414062 30.6875 0.84375 24.15625 0.84375 C 17.289062 0.84375 11.96875 -0.753906 8.1875 -3.953125 C 4.40625 -7.148438 2.515625 -11.992188 2.515625 -18.484375 C 2.515625 -24.828125 4.359375 -29.628906 8.046875 -32.890625 C 11.734375 -36.160156 16.820312 -37.796875 23.3125 -37.796875 Z M 23.875 -28.90625 C 19.488281 -28.90625 17.035156 -26.832031 16.515625 -22.6875 L 30.09375 -22.6875 C 30.09375 -24.59375 29.546875 -26.101562 28.453125 -27.21875 C 27.359375 -28.34375 25.832031 -28.90625 23.875 -28.90625 Z M 23.875 -28.90625 "/></g></g></g><g fill="#f6e7d8" fill-opacity="1"><g transform="translate(453.21861, 188.669882)"><g><path d="M 37.453125 0 L 35.421875 -6.796875 L 18.546875 -6.796875 L 16.515625 0 L 0.703125 0 L 18.265625 -48.15625 L 36.265625 -48.15625 L 53.828125 0 Z M 21.765625 -17.5625 L 32.203125 -17.5625 L 27.15625 -34.71875 L 26.875 -34.71875 Z M 21.765625 -17.5625 "/></g></g></g><g fill="#f6e7d8" fill-opacity="1"><g transform="translate(506.275636, 188.669882)"><g><path d="M 32.203125 -48.15625 C 35.191406 -48.15625 37.851562 -47.46875 40.1875 -46.09375 C 42.519531 -44.71875 44.335938 -42.828125 45.640625 -40.421875 C 46.941406 -38.015625 47.59375 -35.320312 47.59375 -32.34375 L 47.59375 -31.4375 C 47.59375 -28.445312 46.941406 -25.738281 45.640625 -23.3125 C 44.335938 -20.882812 42.519531 -18.984375 40.1875 -17.609375 C 37.851562 -16.234375 35.191406 -15.546875 32.203125 -15.546875 L 20.65625 -15.546875 L 20.65625 0 L 5.1875 0 L 5.1875 -48.15625 Z M 20.65625 -26.8125 L 27.015625 -26.8125 C 28.648438 -26.8125 29.875 -27.226562 30.6875 -28.0625 C 31.507812 -28.90625 31.921875 -30.050781 31.921875 -31.5 L 31.921875 -32.0625 C 31.921875 -33.550781 31.507812 -34.703125 30.6875 -35.515625 C 29.875 -36.335938 28.648438 -36.75 27.015625 -36.75 L 20.65625 -36.75 Z M 20.65625 -26.8125 "/></g></g></g><g fill="#f6e7d8" fill-opacity="1"><g transform="translate(555.412866, 188.669882)"><g><path d="M 5.875 0 L 5.875 -48.15625 L 21.34375 -48.15625 L 21.34375 0 Z M 5.875 0 "/></g></g></g><g fill="#f6e7d8" fill-opacity="1"><g transform="translate(177.626405, 265.040068)"><g><path d="M 17.640625 -30.71875 C 22.109375 -30.71875 25.644531 -29.597656 28.25 -27.359375 C 30.851562 -25.117188 32.15625 -21.921875 32.15625 -17.765625 L 22.90625 -17.765625 C 22.90625 -19.523438 22.441406 -20.914062 21.515625 -21.9375 C 20.597656 -22.957031 19.289062 -23.46875 17.59375 -23.46875 C 15.632812 -23.46875 14.191406 -22.851562 13.265625 -21.625 C 12.347656 -20.394531 11.890625 -18.6875 11.890625 -16.5 L 11.890625 -13.6875 C 11.890625 -11.519531 12.347656 -9.816406 13.265625 -8.578125 C 14.191406 -7.335938 15.601562 -6.71875 17.5 -6.71875 C 19.375 -6.71875 20.789062 -7.195312 21.75 -8.15625 C 22.71875 -9.125 23.203125 -10.484375 23.203125 -12.234375 L 32.15625 -12.234375 C 32.15625 -8.117188 30.890625 -4.960938 28.359375 -2.765625 C 25.828125 -0.566406 22.253906 0.53125 17.640625 0.53125 C 12.492188 0.53125 8.59375 -0.785156 5.9375 -3.421875 C 3.289062 -6.054688 1.96875 -9.945312 1.96875 -15.09375 C 1.96875 -20.238281 3.289062 -24.128906 5.9375 -26.765625 C 8.59375 -29.398438 12.492188 -30.71875 17.640625 -30.71875 Z M 17.640625 -30.71875 "/></g></g></g><g fill="#f6e7d8" fill-opacity="1"><g transform="translate(211.761311, 265.040068)"><g><path d="M 18.25 -30.71875 C 23.457031 -30.71875 27.476562 -29.382812 30.3125 -26.71875 C 33.15625 -24.0625 34.578125 -20.1875 34.578125 -15.09375 C 34.578125 -10 33.15625 -6.117188 30.3125 -3.453125 C 27.476562 -0.796875 23.457031 0.53125 18.25 0.53125 C 13.039062 0.53125 9.023438 -0.789062 6.203125 -3.4375 C 3.378906 -6.09375 1.96875 -9.976562 1.96875 -15.09375 C 1.96875 -20.207031 3.378906 -24.085938 6.203125 -26.734375 C 9.023438 -29.390625 13.039062 -30.71875 18.25 -30.71875 Z M 18.25 -23.46875 C 16.175781 -23.46875 14.597656 -22.835938 13.515625 -21.578125 C 12.429688 -20.328125 11.890625 -18.632812 11.890625 -16.5 L 11.890625 -13.6875 C 11.890625 -11.550781 12.429688 -9.851562 13.515625 -8.59375 C 14.597656 -7.34375 16.175781 -6.71875 18.25 -6.71875 C 20.320312 -6.71875 21.90625 -7.34375 23 -8.59375 C 24.101562 -9.851562 24.65625 -11.550781 24.65625 -13.6875 L 24.65625 -16.5 C 24.65625 -18.632812 24.101562 -20.328125 23 -21.578125 C 21.90625 -22.835938 20.320312 -23.46875 18.25 -23.46875 Z M 18.25 -23.46875 "/></g></g></g><g fill="#f6e7d8" fill-opacity="1"><g transform="translate(248.309354, 265.040068)"><g><path d="M 29.171875 0 L 29.171875 -10.875 C 29.171875 -12.226562 29.222656 -13.613281 29.328125 -15.03125 C 29.429688 -16.445312 29.539062 -17.632812 29.65625 -18.59375 C 29.769531 -19.5625 29.84375 -20.179688 29.875 -20.453125 L 29.703125 -20.453125 L 24.125 0 L 16.546875 0 L 10.921875 -20.40625 L 10.75 -20.40625 C 10.78125 -20.132812 10.859375 -19.523438 10.984375 -18.578125 C 11.117188 -17.628906 11.242188 -16.445312 11.359375 -15.03125 C 11.484375 -13.613281 11.546875 -12.226562 11.546875 -10.875 L 11.546875 0 L 2.625 0 L 2.625 -30.1875 L 16.328125 -30.1875 L 20.890625 -12.765625 L 21.0625 -12.765625 L 25.578125 -30.1875 L 38.78125 -30.1875 L 38.78125 0 Z M 29.171875 0 "/></g></g></g><g fill="#f6e7d8" fill-opacity="1"><g transform="translate(289.727551, 265.040068)"><g><path d="M 29.171875 0 L 29.171875 -10.875 C 29.171875 -12.226562 29.222656 -13.613281 29.328125 -15.03125 C 29.429688 -16.445312 29.539062 -17.632812 29.65625 -18.59375 C 29.769531 -19.5625 29.84375 -20.179688 29.875 -20.453125 L 29.703125 -20.453125 L 24.125 0 L 16.546875 0 L 10.921875 -20.40625 L 10.75 -20.40625 C 10.78125 -20.132812 10.859375 -19.523438 10.984375 -18.578125 C 11.117188 -17.628906 11.242188 -16.445312 11.359375 -15.03125 C 11.484375 -13.613281 11.546875 -12.226562 11.546875 -10.875 L 11.546875 0 L 2.625 0 L 2.625 -30.1875 L 16.328125 -30.1875 L 20.890625 -12.765625 L 21.0625 -12.765625 L 25.578125 -30.1875 L 38.78125 -30.1875 L 38.78125 0 Z M 29.171875 0 "/></g></g></g><g fill="#f6e7d8" fill-opacity="1"><g transform="translate(331.145748, 265.040068)"><g><path d="M 33.296875 -12.15625 C 33.296875 -8.03125 31.992188 -4.882812 29.390625 -2.71875 C 26.785156 -0.550781 23.085938 0.53125 18.296875 0.53125 C 13.492188 0.53125 9.785156 -0.550781 7.171875 -2.71875 C 4.554688 -4.882812 3.25 -8.03125 3.25 -12.15625 L 3.25 -30.1875 L 12.9375 -30.1875 L 12.9375 -12.28125 C 12.9375 -10.582031 13.390625 -9.226562 14.296875 -8.21875 C 15.203125 -7.21875 16.519531 -6.71875 18.25 -6.71875 C 19.976562 -6.71875 21.300781 -7.226562 22.21875 -8.25 C 23.144531 -9.269531 23.609375 -10.613281 23.609375 -12.28125 L 23.609375 -30.1875 L 33.296875 -30.1875 Z M 33.296875 -12.15625 "/></g></g></g><g fill="#f6e7d8" fill-opacity="1"><g transform="translate(367.693791, 265.040068)"><g><path d="M 24.828125 0 L 12.15625 -14.65625 L 12.15625 0 L 3.25 0 L 3.25 -30.1875 L 11.71875 -30.1875 L 24.390625 -15.3125 L 24.390625 -30.1875 L 33.296875 -30.1875 L 33.296875 0 Z M 24.828125 0 "/></g></g></g><g fill="#f6e7d8" fill-opacity="1"><g transform="translate(404.241835, 265.040068)"><g><path d="M 3.6875 0 L 3.6875 -30.1875 L 13.375 -30.1875 L 13.375 0 Z M 3.6875 0 "/></g></g></g><g fill="#f6e7d8" fill-opacity="1"><g transform="translate(421.309307, 265.040068)"><g><path d="M 20.625 -22.46875 L 20.625 0 L 10.921875 0 L 10.921875 -22.46875 L 1.015625 -22.46875 L 1.015625 -30.1875 L 30.5 -30.1875 L 30.5 -22.46875 Z M 20.625 -22.46875 "/></g></g></g><g fill="#f6e7d8" fill-opacity="1"><g transform="translate(452.987199, 265.040068)"><g><path d="M 21.984375 0 L 12.28125 0 L 12.28125 -11.71875 L 0.3125 -30.1875 L 11.453125 -30.1875 L 17.25 -20.140625 L 17.421875 -20.140625 L 23.203125 -30.1875 L 33.78125 -30.1875 L 21.984375 -11.71875 Z M 21.984375 0 "/></g></g></g><g fill="#f6e7d8" fill-opacity="1"><g transform="translate(487.122117, 265.040068)"><g/></g></g><g fill="#f6e7d8" fill-opacity="1"><g transform="translate(501.732562, 265.040068)"><g><path d="M 20.1875 -30.1875 C 22.050781 -30.1875 23.710938 -29.753906 25.171875 -28.890625 C 26.640625 -28.023438 27.78125 -26.835938 28.59375 -25.328125 C 29.414062 -23.828125 29.828125 -22.140625 29.828125 -20.265625 L 29.828125 -19.703125 C 29.828125 -17.828125 29.414062 -16.128906 28.59375 -14.609375 C 27.78125 -13.085938 26.640625 -11.894531 25.171875 -11.03125 C 23.710938 -10.164062 22.050781 -9.734375 20.1875 -9.734375 L 12.9375 -9.734375 L 12.9375 0 L 3.25 0 L 3.25 -30.1875 Z M 12.9375 -16.796875 L 16.9375 -16.796875 C 17.957031 -16.796875 18.722656 -17.0625 19.234375 -17.59375 C 19.742188 -18.125 20 -18.84375 20 -19.75 L 20 -20.09375 C 20 -21.03125 19.742188 -21.753906 19.234375 -22.265625 C 18.722656 -22.773438 17.957031 -23.03125 16.9375 -23.03125 L 12.9375 -23.03125 Z M 12.9375 -16.796875 "/></g></g></g><g fill="#f6e7d8" fill-opacity="1"><g transform="translate(533.410453, 265.040068)"><g><path d="M 31.890625 -20.921875 C 31.890625 -19.085938 31.390625 -17.421875 30.390625 -15.921875 C 29.398438 -14.429688 27.957031 -13.335938 26.0625 -12.640625 L 32.78125 0 L 21.890625 0 L 16.546875 -11.015625 L 12.9375 -11.015625 L 12.9375 0 L 3.25 0 L 3.25 -30.1875 L 21.71875 -30.1875 C 23.882812 -30.1875 25.734375 -29.769531 27.265625 -28.9375 C 28.804688 -28.101562 29.960938 -26.972656 30.734375 -25.546875 C 31.503906 -24.128906 31.890625 -22.585938 31.890625 -20.921875 Z M 22.03125 -20.53125 C 22.03125 -21.320312 21.765625 -21.976562 21.234375 -22.5 C 20.710938 -23.03125 20.070312 -23.296875 19.3125 -23.296875 L 12.9375 -23.296875 L 12.9375 -17.71875 L 19.3125 -17.71875 C 20.070312 -17.71875 20.710938 -17.988281 21.234375 -18.53125 C 21.765625 -19.070312 22.03125 -19.738281 22.03125 -20.53125 Z M 22.03125 -20.53125 "/></g></g></g><g fill="#f6e7d8" fill-opacity="1"><g transform="translate(567.545372, 265.040068)"><g><path d="M 18.25 -30.71875 C 23.457031 -30.71875 27.476562 -29.382812 30.3125 -26.71875 C 33.15625 -24.0625 34.578125 -20.1875 34.578125 -15.09375 C 34.578125 -10 33.15625 -6.117188 30.3125 -3.453125 C 27.476562 -0.796875 23.457031 0.53125 18.25 0.53125 C 13.039062 0.53125 9.023438 -0.789062 6.203125 -3.4375 C 3.378906 -6.09375 1.96875 -9.976562 1.96875 -15.09375 C 1.96875 -20.207031 3.378906 -24.085938 6.203125 -26.734375 C 9.023438 -29.390625 13.039062 -30.71875 18.25 -30.71875 Z M 18.25 -23.46875 C 16.175781 -23.46875 14.597656 -22.835938 13.515625 -21.578125 C 12.429688 -20.328125 11.890625 -18.632812 11.890625 -16.5 L 11.890625 -13.6875 C 11.890625 -11.550781 12.429688 -9.851562 13.515625 -8.59375 C 14.597656 -7.34375 16.175781 -6.71875 18.25 -6.71875 C 20.320312 -6.71875 21.90625 -7.34375 23 -8.59375 C 24.101562 -9.851562 24.65625 -11.550781 24.65625 -13.6875 L 24.65625 -16.5 C 24.65625 -18.632812 24.101562 -20.328125 23 -21.578125 C 21.90625 -22.835938 20.320312 -23.46875 18.25 -23.46875 Z M 18.25 -23.46875 "/></g></g></g><g fill="#f6e7d8" fill-opacity="1"><g transform="translate(604.093403, 265.040068)"><g><path d="M 26.015625 -10.484375 C 26.015625 -6.710938 24.9375 -3.929688 22.78125 -2.140625 C 20.632812 -0.359375 17.546875 0.53125 13.515625 0.53125 C 9.472656 0.53125 6.378906 -0.359375 4.234375 -2.140625 C 2.085938 -3.929688 1.015625 -6.710938 1.015625 -10.484375 L 1.015625 -10.875 L 10.09375 -10.875 L 10.09375 -10.53125 C 10.09375 -9.15625 10.347656 -8.175781 10.859375 -7.59375 C 11.367188 -7.007812 12.148438 -6.71875 13.203125 -6.71875 C 14.253906 -6.71875 15.035156 -7.007812 15.546875 -7.59375 C 16.066406 -8.175781 16.328125 -9.15625 16.328125 -10.53125 L 16.328125 -30.1875 L 26.015625 -30.1875 Z M 26.015625 -10.484375 "/></g></g></g><g fill="#f6e7d8" fill-opacity="1"><g transform="translate(633.358131, 265.040068)"><g><path d="M 3.25 -30.1875 L 29.359375 -30.1875 L 29.359375 -22.953125 L 12.9375 -22.953125 L 12.9375 -18.78125 L 26.984375 -18.78125 L 26.984375 -11.84375 L 12.9375 -11.84375 L 12.9375 -7.234375 L 29.65625 -7.234375 L 29.65625 0 L 3.25 0 Z M 3.25 -30.1875 "/></g></g></g><g fill="#f6e7d8" fill-opacity="1"><g transform="translate(665.035998, 265.040068)"><g><path d="M 17.640625 -30.71875 C 22.109375 -30.71875 25.644531 -29.597656 28.25 -27.359375 C 30.851562 -25.117188 32.15625 -21.921875 32.15625 -17.765625 L 22.90625 -17.765625 C 22.90625 -19.523438 22.441406 -20.914062 21.515625 -21.9375 C 20.597656 -22.957031 19.289062 -23.46875 17.59375 -23.46875 C 15.632812 -23.46875 14.191406 -22.851562 13.265625 -21.625 C 12.347656 -20.394531 11.890625 -18.6875 11.890625 -16.5 L 11.890625 -13.6875 C 11.890625 -11.519531 12.347656 -9.816406 13.265625 -8.578125 C 14.191406 -7.335938 15.601562 -6.71875 17.5 -6.71875 C 19.375 -6.71875 20.789062 -7.195312 21.75 -8.15625 C 22.71875 -9.125 23.203125 -10.484375 23.203125 -12.234375 L 32.15625 -12.234375 C 32.15625 -8.117188 30.890625 -4.960938 28.359375 -2.765625 C 25.828125 -0.566406 22.253906 0.53125 17.640625 0.53125 C 12.492188 0.53125 8.59375 -0.785156 5.9375 -3.421875 C 3.289062 -6.054688 1.96875 -9.945312 1.96875 -15.09375 C 1.96875 -20.238281 3.289062 -24.128906 5.9375 -26.765625 C 8.59375 -29.398438 12.492188 -30.71875 17.640625 -30.71875 Z M 17.640625 -30.71875 "/></g></g></g><g fill="#f6e7d8" fill-opacity="1"><g transform="translate(699.170892, 265.040068)"><g><path d="M 20.625 -22.46875 L 20.625 0 L 10.921875 0 L 10.921875 -22.46875 L 1.015625 -22.46875 L 1.015625 -30.1875 L 30.5 -30.1875 L 30.5 -22.46875 Z M 20.625 -22.46875 "/></g></g></g><g fill="#f6e7d8" fill-opacity="1"><g transform="translate(730.848809, 265.040068)"><g><path d="M 15.921875 -30.71875 C 19.785156 -30.71875 22.957031 -29.929688 25.4375 -28.359375 C 27.925781 -26.796875 29.203125 -24.476562 29.265625 -21.40625 L 29.265625 -20.890625 L 20.1875 -20.890625 L 20.1875 -21.0625 C 20.1875 -21.9375 19.863281 -22.664062 19.21875 -23.25 C 18.570312 -23.832031 17.59375 -24.125 16.28125 -24.125 C 14.988281 -24.125 14 -23.929688 13.3125 -23.546875 C 12.625 -23.171875 12.28125 -22.707031 12.28125 -22.15625 C 12.28125 -21.363281 12.75 -20.773438 13.6875 -20.390625 C 14.625 -20.015625 16.128906 -19.625 18.203125 -19.21875 C 20.628906 -18.71875 22.625 -18.195312 24.1875 -17.65625 C 25.757812 -17.113281 27.128906 -16.226562 28.296875 -15 C 29.460938 -13.769531 30.0625 -12.101562 30.09375 -10 C 30.09375 -6.4375 28.882812 -3.789062 26.46875 -2.0625 C 24.0625 -0.332031 20.835938 0.53125 16.796875 0.53125 C 12.085938 0.53125 8.425781 -0.257812 5.8125 -1.84375 C 3.195312 -3.425781 1.890625 -6.21875 1.890625 -10.21875 L 11.0625 -10.21875 C 11.0625 -8.695312 11.453125 -7.679688 12.234375 -7.171875 C 13.023438 -6.660156 14.253906 -6.40625 15.921875 -6.40625 C 17.148438 -6.40625 18.164062 -6.535156 18.96875 -6.796875 C 19.78125 -7.066406 20.1875 -7.609375 20.1875 -8.421875 C 20.1875 -9.148438 19.738281 -9.695312 18.84375 -10.0625 C 17.945312 -10.4375 16.492188 -10.828125 14.484375 -11.234375 C 12.023438 -11.753906 9.988281 -12.300781 8.375 -12.875 C 6.769531 -13.445312 5.367188 -14.390625 4.171875 -15.703125 C 2.972656 -17.023438 2.375 -18.8125 2.375 -21.0625 C 2.375 -24.363281 3.648438 -26.796875 6.203125 -28.359375 C 8.765625 -29.929688 12.003906 -30.71875 15.921875 -30.71875 Z M 15.921875 -30.71875 "/></g></g></g></svg>